<svg xmlns="http://www.w3.org/2000/svg" xmlns:xlink="http://www.w3.org/1999/xlink" viewBox="0 0 401.81 595.28"><defs><style>.cls-1{fill:#104572;}.cls-2{isolation:isolate;}.cls-11,.cls-3,.cls-9{fill:none;}.cls-3{stroke:#f7cdb3;stroke-width:17.81px;}.cls-10,.cls-11,.cls-3,.cls-9{stroke-linecap:round;stroke-linejoin:round;}.cls-4{fill:#ec519b;}.cls-5{fill:#393939;}.cls-6{fill:#e2e2e2;}.cls-7{fill:#f7cdb3;}.cls-8{fill:#d54d94;}.cls-9{stroke:#d54d94;stroke-width:2.64px;}.cls-10{fill:#231f20;stroke-width:1.11px;}.cls-10,.cls-11{stroke:#231f20;}.cls-11{stroke-width:2.64px;}.cls-12{fill:#2c72b5;}.cls-13{fill:#71b5b6;}.cls-14{fill:#fcfcfb;}.cls-15{fill:#99ca3d;}.cls-16{fill:#034ea2;}.cls-17{fill:#3b6232;}.cls-18{fill:#cddcec;}.cls-19{clip-path:url(#clip-path);}.cls-20{fill:#4087c7;}.cls-21{fill:#42568d;mix-blend-mode:overlay;}.cls-22{fill:#f9fdff;}.cls-23{clip-path:url(#clip-path-2);}.cls-24{clip-path:url(#clip-path-3);}.cls-25{clip-path:url(#clip-path-4);}.cls-26{clip-path:url(#clip-path-5);}.cls-27{fill:#3c6232;}</style><clipPath id="clip-path"><path class="cls-1" d="M200.85,262.4a2.73,2.73,0,0,1,3.53-2.11c4.82,3.1-.6,7.42-3.51,2.82A1.63,1.63,0,0,1,200.85,262.4Z"/></clipPath><clipPath id="clip-path-2"><path class="cls-1" d="M223.14,259.65a2.74,2.74,0,0,1-3,2.79c-5.34-2.09-.89-7.4,2.88-3.48A1.68,1.68,0,0,1,223.14,259.65Z"/></clipPath><clipPath id="clip-path-3"><path class="cls-1" d="M208.24,257.23a3,3,0,0,0-1.26,4.26c1.08,1.66,3.88.64,4.54-.85.95-2.29-1-4.4-3.28-3.41"/></clipPath><clipPath id="clip-path-4"><path class="cls-1" d="M215.46,264.73c4.08-1.47-.4-6.21-2.94-3.73-2.15,1.84.59,5.06,2.94,3.73"/></clipPath><clipPath id="clip-path-5"><path class="cls-1" d="M213.54,254.81c-4,1.71.77,6.18,3.16,3.55,2-2-.89-5-3.16-3.55"/></clipPath></defs><g class="cls-2"><g id="руки"><path class="cls-3" d="M159.24,377.36c-12.39-60.07-6.85-103.3,5.93-122.13"/><path class="cls-3" d="M263.71,250.89s6.61,32.63,33.39,36.72,29.33-54.77,33.38-64.81"/></g><g id="голова"><path class="cls-4" d="M274.59,106c-1.72-14.66-7.69-33-10.09-47.56a109.19,109.19,0,0,1-1.62-11c-.33-5.32-3.08-9-7.31-11.69-8.53-5.44-17.73-5.63-27.1-2.71a12.06,12.06,0,0,0-6.76,5.8c-5.38,9.54-13.64,16.2-22.11,22.69-8.76,6.72-18.89,18.36-24.56,27.93a3.56,3.56,0,0,1,1.61.17c2.4,1.87-1.23-1.06,1.5.85C180.38,92,182,101,183.55,102c6.7,4.14,14.58-10.54,21.67-8.08,4.71,1.63,10.08,14,15.16,14.57,9.25,1,18.31,3.4,27.5,4.42,6.17.68,12.18,2.09,18.31,2.79,2.56.3,4.83-10.76,5.52-7.67C273.06,105.82,271.79,107.39,274.59,106Z"/><path class="cls-5" d="M193.74,115.57c-.9-2.09-4,.24-5.66,0-8.76-1.41-16.83-3.94-25.6-5.34-9,24.71-11.2,51.34-8.94,77.29.3,3.51,1.62,4.35,4.68,4.88,16.17,2.81,32.52,3.11,48.84,3.95,1.8-2.32.94-5.13,1.4-7.7.5-2.78-1.93-2.41-3.47-2.88-15-4.61-25.49-14.1-31.3-28.79a9.29,9.29,0,0,1,.8-9.37C180.73,137.69,187.71,125.59,193.74,115.57Z"/><path class="cls-5" d="M278.92,130c-2.61-.65-5.45-1.58-8.22-1.36-.64,2.79,2.06,3.51,3.05,4.76,4.64,5.86,1.63,17.77-7,18.74V127.87c-7.12-1.28-14.45-3.15-21.7-3.57a258.8,258.8,0,0,1,8,42.22,8.63,8.63,0,0,1-3.1,7.91,48.37,48.37,0,0,1-19.18,11.13c-6.47,1.93-7.25,3.73-4.47,10.43,16.62-.8,33.22-1.87,49.76-3.76,3.82-.43,5.5-1.33,5.69-5.54C282.6,167.92,283.32,148.52,278.92,130Z"/><path class="cls-6" d="M206.05,201.81l.2.38-.22-.36Z"/><path class="cls-7" d="M266.77,128.06v24.1c8.61-1,11.62-12.88,7-18.74-1-1.25-3.16-1.89-2.7-4.12l.13-.62c-.33-.91-1.69-.21-2.72-.42C267.9,128.3,267.34,128,266.77,128.06Z"/><path class="cls-7" d="M200.75,202.9c-1.08,10.49,4.74,18.52,14.22,19.81,9.63,1.08,18.68-7.81,18.42-15.72a32,32,0,0,0-.44-4.08c-5,.38-5-1.24-6.61-6.92-1.55-6.76-2-8.5,4.47-10.43A48.37,48.37,0,0,0,250,174.43a8.63,8.63,0,0,0,3.1-7.91,264.24,264.24,0,0,0-7.84-42.62c-15.17-2.56-30.12-4.75-45.31-7.15-2.28-.36-3.83-3.11-6.2-1.18-6,10-13,22.12-19.25,32a9.29,9.29,0,0,0-.8,9.37c5.81,14.69,16.27,24.18,31.3,28.79,1.54.47,4,.1,3.47,2.88-.46,2.57-2.08,11.37-2.43,13.21l.22.36-.2-.38A9.23,9.23,0,0,1,200.75,202.9Z"/><path class="cls-8" d="M161.72,106.69l6.05-16.18a3.68,3.68,0,0,1,4-2.35l106.43,17.19a3.7,3.7,0,0,1,3.1,3.54l.5,17.33a3.7,3.7,0,0,1-4.29,3.75l-113-18.34A3.69,3.69,0,0,1,161.72,106.69Z"/></g><g id="лицо"><path class="cls-9" d="M204.08,168.44s13.77,6.14,25.77-3.25"/><path class="cls-10" d="M195,135.32c4.16,1.1,8.17,3.17,9.12,6.58-2.52,2.5-7.32,1.78-11.48.67s7,.36,8.25-1.68C200.64,138,190.85,134.22,195,135.32Z"/><path class="cls-10" d="M232.05,134.4a11.29,11.29,0,0,0-8.17,7.5,11.92,11.92,0,0,0,19-5A11.28,11.28,0,0,0,232.05,134.4Z"/><polyline class="cls-11" points="217.88 145.41 210.59 145.41 214.41 151.41"/></g><g id="ноги"><path class="cls-12" d="M255.75,383.28H179.22l-.21,4.24q.08,27.69.16,55.39,0,39.42,0,78.84c0,3.52.3,5.77,4.76,5.42s8.87,0,13.31.09c0-1.6.09-3.19.09-4.79,0-39.42.11-78.84,0-118.26,0-4.32,1.1-6.1,5.63-5.87,5.85.29,11.73,0,17.59,0,6.91,0,6.9,0,6.89,6.9q-.07,60.45-.13,120.91c3.9,1.82,8,.8,12.06.89,7,.16,7,0,7-6.74q.08-58.48.16-117c0-2.06-.69-4.27.82-6.16C250.81,393,255.16,389.27,255.75,383.28Z"/><path class="cls-5" d="M249.54,568q-2.26-7-4.52-14a11.6,11.6,0,0,1-2.21-6.31c-3.25-2.42-6.47-4.95-10.73-2L228.74,553l-3.85,15Z"/><path class="cls-13" d="M247.29,397.16c-1.51,1.89-.82,4.1-.82,6.16q-.14,58.49-.16,117c0,6.77,0,6.9-7,6.74-4-.09-8.16.93-12.06-.89-3.05,2-2.51,5-2.1,7.85.37,2.49,2.78,1.26,4.25,1.76l13.5,0c4.42.45,4.75-1.6,4.72-5.66-.29-35.09-.18-70.19-.21-105.28C247.41,415.59,247.33,406.38,247.29,397.16Z"/><path class="cls-7" d="M242.9,535.74l-13.5,0c.28,3.45-2,7.59,2.68,9.86,4.26-2.9,7.48-.37,10.73,2C245.26,543.71,243.51,539.72,242.9,535.74Z"/><path class="cls-5" d="M195.94,555.4l-2.16-4.61c-5.68.63-11.05.53-13.84-5.76-1.26-.11-3.3-1.07-2.84,1.41,1,5.33-2.86,6.55-6.4,8.15-4.45,2.72-8.82,5.6-13.39,8.1a4.77,4.77,0,0,0-2.81,5l44.87.4Q197.66,561.75,195.94,555.4Z"/><path class="cls-14" d="M199.37,568.11l-44.87-.4c-.74,4.92,1,6.82,6.31,6.62,10.79-.39,21.61-.36,32.4,0C198.14,574.5,200.13,573,199.37,568.11Z"/><path class="cls-14" d="M249.54,568l-24.65,0c-1.68,5.67-1.37,6.14,4.33,6.19,4.59,0,9.22-.32,13.77.1C248,574.77,250.34,573.17,249.54,568Z"/><path class="cls-13" d="M194.74,535.77c1.46-.56,4.08.51,4.14-1.91.06-2.2,1.9-5.22-1.68-6.61-4.44-.06-8.9-.43-13.31-.09s-4.77-1.9-4.76-5.42q.15-39.42,0-78.84c0-18.47.1-41.17.05-59.63-1.24,2-.94,8.39-.94,10.48q0,43.15,0,86.31c0,11.34-.1,22.68.05,34a55.6,55.6,0,0,1-1.63,12.58c-1.55,7.19-1.51,7.63,4.79,9.92A40.81,40.81,0,0,1,194.74,535.77Z"/><path class="cls-7" d="M194.74,535.77a40.81,40.81,0,0,0-13.27.81c-2,2.55-1.14,5.61-1.53,8.45,2.79,6.29,8.16,6.39,13.84,5.76C197.68,546,193.45,540.72,194.74,535.77Z"/></g><g id="футболка"><path class="cls-15" d="M151.31,246.8c4.07-10.73,9.12-21,18.55-28.43s19.23-13.15,31-15.45c0,1.41.13,2.82.09,4.23-.26,7.92,7.93,16.26,17.57,15.17,7.58-.85,15.52-8.93,14.44-19.41a61.52,61.52,0,0,1,28.51,14c.65.47,1.28.91,2,1.43,9.42,7.48,14.48,17.7,18.54,28.43,1.27,3.34,3.35,7.84-.58,11.42-6.13,1-12,2.56-17,6.53-2-.07-3,.5-3.59,1.39,0,2.68.18,9.08.17,11.15q-.35,50.1-.07,100.2c0,3.93-.94,6-4.54,5.85a9.81,9.81,0,0,1-1.76-.06H178.71a9.68,9.68,0,0,1-1.75.06c-3.6.14-4.56-1.92-4.54-5.85q.24-50.1-.07-100.2c0-2.07.16-8.47.17-11.15-.57-.89-1.61-1.46-3.6-1.39-5-4-10.9-5.52-17-6.53C148,254.64,150.05,250.14,151.31,246.8Z"/><path class="cls-16" d="M193.88,273.25h-.57v1.59h-.9v-1.59h-.58l-.89,1.59h-1.05l1.18-2.06L190,270.9h1l.88,1.59h.6V270.9h.9v1.59h.58l.89-1.59h1l-1.1,1.88,1.17,2.06h-1.05Z"/><path class="cls-16" d="M199,274h-1.83l-.35.85h-.93l1.75-3.94h.9l1.76,3.94h-1Zm-.29-.69-.62-1.5-.63,1.5Z"/><path class="cls-16" d="M206.06,270.9v3.94h-5.2V270.9h.91v3.2H203v-3.2h.91v3.2h1.23v-3.2Z"/><path class="cls-17" d="M210.43,273.47c0,.9-.61,1.37-1.62,1.37H207V270.9h.91v1.3h1C209.89,272.2,210.43,272.62,210.43,273.47Zm-.92,0c0-.43-.28-.61-.75-.61h-.82v1.29h.82C209.23,274.16,209.51,273.93,209.51,273.48Zm1.42-2.58h.9v3.94h-.9Z"/><path class="cls-17" d="M216.32,270.9v3.94h-.9v-3.19h-1.35l0,.82c0,1.54-.27,2.43-1.19,2.43a2,2,0,0,1-.45-.06l.06-.77.16,0c.46,0,.58-.58.62-1.59l0-1.6Z"/><path class="cls-16" d="M218.82,273.25h-.63v1.59h-.9V270.9h.9v1.59h.66l1-1.59h1l-1.29,1.9,1.33,2h-1Z"/><path class="cls-16" d="M224.94,270.9v3.94H224v-3.19h-1.35l0,.82c0,1.54-.27,2.43-1.19,2.43a2,2,0,0,1-.45-.06l.06-.77.16,0c.46,0,.58-.58.62-1.59l0-1.6Z"/><path class="cls-16" d="M225.92,270.9h.91v2.57l1.87-2.57h.86v3.94h-.9v-2.56l-1.88,2.56h-.86Z"/><path class="cls-16" d="M234.12,274.84v-2.36L233,274.42h-.4l-1.16-1.89v2.31h-.85V270.9h.75l1.47,2.45,1.45-2.45H235v3.94Z"/><path class="cls-16" d="M238.61,274h-1.83l-.34.85h-.94l1.76-3.94h.9l1.76,3.94h-1Zm-.29-.69-.62-1.5-.62,1.5Z"/><path class="cls-16" d="M243.44,271.65h-1.25v3.19h-.9v-3.19H240v-.75h3.41Z"/><path class="cls-18" d="M203.22,265.3a3.55,3.55,0,0,0,2.59-.7,2.3,2.3,0,0,0,0-3.45c-.93-1-2.14-1.48-3-1.08s-2.11.65-2.23,2.07.31,1.47,1,2.15A5.1,5.1,0,0,0,203.22,265.3Z"/><path class="cls-1" d="M200.85,262.4a2.73,2.73,0,0,1,3.53-2.11c4.82,3.1-.6,7.42-3.51,2.82A1.63,1.63,0,0,1,200.85,262.4Z"/><g class="cls-19"><ellipse class="cls-20" cx="203.41" cy="261.84" rx="2.44" ry="2.87" transform="translate(-125.12 306.59) rotate(-59.92)"/><ellipse class="cls-21" cx="200.85" cy="261.67" rx="1.5" ry="1.71" transform="translate(-126.25 304.3) rotate(-59.92)"/></g><circle class="cls-22" cx="204.25" cy="261.58" r="0.19"/><path class="cls-18" d="M220.24,257.29a3.51,3.51,0,0,0-2.39,1.2,2.31,2.31,0,0,0,.68,3.39c1.1.77,2.39,1,3.13.46s1.93-1.06,1.76-2.47-.59-1.38-1.39-1.91A5,5,0,0,0,220.24,257.29Z"/><path class="cls-1" d="M223.14,259.65a2.74,2.74,0,0,1-3,2.79c-5.34-2.09-.89-7.4,2.88-3.48A1.68,1.68,0,0,1,223.14,259.65Z"/><g class="cls-23"><ellipse class="cls-20" cx="220.75" cy="260.72" rx="2.44" ry="2.87" transform="translate(-96.68 386.99) rotate(-71.44)"/><ellipse class="cls-21" cx="223.29" cy="260.37" rx="1.5" ry="1.71" transform="translate(-94.62 389.16) rotate(-71.44)"/></g><circle class="cls-22" cx="219.98" cy="261.14" r="0.19"/><path class="cls-18" d="M211.71,260.67a3.28,3.28,0,0,0-.19-2.58,2.3,2.3,0,0,0-3.3-1,3,3,0,0,0-1.87,2.68c.14.91,0,2.06,1.32,2.58a2.79,2.79,0,0,0,2.77-.34A3.27,3.27,0,0,0,211.71,260.67Z"/><path class="cls-1" d="M208.24,257.23a3,3,0,0,0-1.26,4.26c1.08,1.66,3.88.64,4.54-.85.95-2.29-1-4.4-3.28-3.41"/><g class="cls-24"><ellipse class="cls-20" cx="208.87" cy="258.68" rx="2.73" ry="2.41" transform="translate(-86.48 106) rotate(-23.74)"/><ellipse class="cls-21" cx="210.52" cy="257.68" rx="1.8" ry="1.57" transform="translate(-85.93 106.58) rotate(-23.74)"/></g><circle class="cls-22" cx="209.05" cy="260.36" r="0.19"/><path class="cls-18" d="M212.35,260.71a3.09,3.09,0,0,0-.8,2.54c.17.71,1.42,2.22,2.74,2s2.57-.86,2.74-1.77a2.24,2.24,0,0,0-1-2.69c-1.17-.57-1-.84-1.9-.69A7.82,7.82,0,0,0,212.35,260.71Z"/><path class="cls-1" d="M215.46,264.73c4.08-1.47-.4-6.21-2.94-3.73-2.15,1.84.59,5.06,2.94,3.73"/><g class="cls-25"><ellipse class="cls-20" cx="214.75" cy="263.07" rx="1.98" ry="1.81" transform="translate(-87.75 108.74) rotate(-23.74)"/><ellipse class="cls-21" cx="215.66" cy="261.29" rx="1.12" ry="0.99" transform="translate(-86.95 108.95) rotate(-23.74)"/></g><circle class="cls-22" cx="213.91" cy="261.45" r="0.19"/><path class="cls-18" d="M216.89,258.63a3.08,3.08,0,0,0,.64-2.58c-.21-.7-1.55-2.13-2.86-1.87s-2.51,1-2.62,1.93a2.22,2.22,0,0,0,1.12,2.62c1.2.5,1,.79,1.93.58A7.41,7.41,0,0,0,216.89,258.63Z"/><path class="cls-1" d="M213.54,254.81c-4,1.71.77,6.18,3.16,3.55,2-2-.89-5-3.16-3.55"/><g class="cls-26"><ellipse class="cls-20" cx="214.34" cy="256.42" rx="1.98" ry="1.81" transform="translate(-93.48 126.28) rotate(-27.19)"/><ellipse class="cls-21" cx="213.54" cy="258.26" rx="1.12" ry="0.99" transform="translate(-94.41 126.12) rotate(-27.19)"/></g><circle class="cls-22" cx="215.29" cy="257.98" r="0.19"/><path class="cls-17" d="M189.86,266.2a9,9,0,0,1,4-.69,11.91,11.91,0,0,0,2.73.09,8.51,8.51,0,0,1,4-.88.07.07,0,0,1,.06.07,3.53,3.53,0,0,1-2.54,1.27c-.47,0-1-.11-1.42-.07-1.36.16-2.65.87-4.06.83a7.27,7.27,0,0,1-2.76-.5.07.07,0,0,1,0-.12Z"/><path class="cls-17" d="M209,263.5a5.17,5.17,0,0,1,2.48,1.91c.49.38,1,1.08,1.66,1.26a8.06,8.06,0,0,0,1.1.13c.49.11,1.7.74,1.81,1.31a3.08,3.08,0,0,1-2.19-.37,3.27,3.27,0,0,0-1.92-1,3,3,0,0,1-2-1.12,5.21,5.21,0,0,1-1-2,.08.08,0,0,1,.1-.08Z"/><path class="cls-17" d="M217.13,264.63a1.9,1.9,0,0,1,1.91-.07c.38.12.69.64,1.12.62a3.08,3.08,0,0,0,.65-.21,1.43,1.43,0,0,1,1.15.52.08.08,0,0,1,0,.12,1.17,1.17,0,0,1-1.32.36c-.19-.11-.37-.34-.57-.41a.92.92,0,0,0-.63,0,2.27,2.27,0,0,1-1.29,0,2.05,2.05,0,0,1-1.07-.86.09.09,0,0,1,0-.12Z"/><path class="cls-17" d="M231.06,265.2a4.69,4.69,0,0,1-3.24-.4c-.67-.25-1.2-.89-1.92-1a3.72,3.72,0,0,1-2.11-.53,2.76,2.76,0,0,1-.81-.82.07.07,0,0,1,.05-.11,3.82,3.82,0,0,1,3,1.09c1,.39,2.17.14,3.17.55a5.62,5.62,0,0,1,1.89,1.15.06.06,0,0,1,0,.11Z"/><path class="cls-17" d="M236,261.09a8.27,8.27,0,0,1-4.51.89c-1,0-2-.42-3.05-.33a7,7,0,0,1-3.06.17,5,5,0,0,1-1.48-.54.06.06,0,0,1,0-.08,7.36,7.36,0,0,1,4.57.06c1.51.05,3-.59,4.49-.58a12.27,12.27,0,0,1,3,.29.07.07,0,0,1,0,.12Z"/><path class="cls-17" d="M229.11,257.86a2,2,0,0,1-1.64,1.22c-.42.12-1-.15-1.37.08-.2.1-.35.35-.55.48a1.27,1.27,0,0,1-1.4-.15s0-.08,0-.12a1.52,1.52,0,0,1,1.15-.7,3.54,3.54,0,0,0,.7.12c.45-.05.72-.6,1.09-.78a2.13,2.13,0,0,1,2-.26.08.08,0,0,1,.05.11Z"/><path class="cls-17" d="M221.13,250.29a2.15,2.15,0,0,1-.33,2.17c-.24.41-.84.62-1,1.08-.09.22-.06.52-.14.77a1.35,1.35,0,0,1-1.31.78.07.07,0,0,1-.07-.09,1.77,1.77,0,0,1,.56-1.28,2.82,2.82,0,0,0,.62-.39c.38-.47.14-1.38.53-2a2.87,2.87,0,0,1,1-1.06.08.08,0,0,1,.12,0Z"/><path class="cls-17" d="M218.72,239.33a17.85,17.85,0,0,1-.39,7.24c-.5,2.38-1.8,4.49-2.47,6.81l-.29-.34c1.44-.95,2.35-2.66,3.36-4.06,2.4-4.12.59,1-.16,2.09a5,5,0,0,1-3.09,2.46.24.24,0,0,1-.28-.34c1.12-2.11,1.23-4.59,1.72-6.88s.89-4.62,1.47-7c0-.06.12-.06.13,0Z"/><path class="cls-17" d="M222.06,240.7a3.14,3.14,0,0,1-.81,2.75c-.37.52-1.09.76-1.42,1.31-.18.26-.23.63-.4.91a2.22,2.22,0,0,1-1.69.94.08.08,0,0,1-.08-.07,2.5,2.5,0,0,1,.43-.93c.31-.58.94-.75,1.44-1.1.61-.67.61-1.73,1.13-2.47a5.67,5.67,0,0,1,1.28-1.38.08.08,0,0,1,.12,0Z"/><path class="cls-17" d="M213.16,240.78a9.62,9.62,0,0,1,2,4.51c.25,1.07.08,2.22.39,3.28a5.9,5.9,0,0,1,.52,4.08c-.09.21-.24.81-.44.82a.05.05,0,0,1,0,0,15.17,15.17,0,0,1-.44-4.79c-.28-1.59-1.26-3-1.62-4.57a13.2,13.2,0,0,1-.46-3.24c0-.06.08-.09.11-.05Z"/><path class="cls-17" d="M216.22,241.13a6.11,6.11,0,0,1-.92,5.93c-.27.43-.92.1-1.22-.06-1.14-.79-2.49-1.56-2.94-3a4.5,4.5,0,0,1-.35-1.64s0-.07.06-.07a8.51,8.51,0,0,1,1.94,2.57c.31.78.85,1.75,1.81,1.7.09,0,.24,0,.22-.07l-.21.19c.47-1.92.88-3.65,1.49-5.58a.07.07,0,0,1,.12,0Z"/><path class="cls-17" d="M212.78,248.2a2.18,2.18,0,0,1,1.05,1.82c.08.44-.22,1,0,1.41a6.05,6.05,0,0,0,.48.57,1.45,1.45,0,0,1-.06,1.42.09.09,0,0,1-.12,0,1.5,1.5,0,0,1-.79-1.19,4.9,4.9,0,0,0,.11-.74,1,1,0,0,0-.31-.61,2.76,2.76,0,0,1-.67-1.23,2.35,2.35,0,0,1,.2-1.46.07.07,0,0,1,.11,0Z"/><path class="cls-17" d="M202.46,247.64a13.08,13.08,0,0,1,5.14,2.91c1.55,1.24,2.51,3.06,4,4.32l-.45.11a10.71,10.71,0,0,0-1.08-2.44c-.42-.78-1-1.78-1.38-2.59a.06.06,0,0,1,.09-.08A7.18,7.18,0,0,1,211,252a3.82,3.82,0,0,1,.68,3.15.25.25,0,0,1-.3.18c-1.83-2.33-4.65-3.6-6.81-5.61-.74-.62-1.46-1.26-2.17-2-.05,0,0-.12.06-.11Z"/><path class="cls-17" d="M204.61,246a2.19,2.19,0,0,1,1.77,1.46c.24.45.09,1.09.39,1.51.13.21.42.35.58.57a1.51,1.51,0,0,1,0,1.56.08.08,0,0,1-.11,0,1.83,1.83,0,0,1-.84-1.23,4,4,0,0,0,0-.77c-.12-.48-.73-.69-1-1.06a2.91,2.91,0,0,1-.89-2,.08.08,0,0,1,.09-.08Z"/><path class="cls-17" d="M201.56,251.83a6.69,6.69,0,0,1,4,.33c.85.26,1.58.91,2.45,1.1.43.11.92.06,1.37.16a3.81,3.81,0,0,1,1.77,1c.11.15.5.54.39.69h-.05a8.05,8.05,0,0,1-3.6-1.52c-1.24-.44-2.64-.19-3.9-.59a8.91,8.91,0,0,1-2.46-1.09.07.07,0,0,1,0-.12Z"/><path class="cls-17" d="M202.88,250a4.6,4.6,0,0,1,4,2.84c.24.42-.26.73-.53.89-1,.44-2.05,1.16-3.2.84a3.35,3.35,0,0,1-1.25-.5.08.08,0,0,1,0-.1,5.15,5.15,0,0,1,2.5-.39c.63.14,1.52.28,1.85-.41,0-.06,0-.19,0-.15l.08.26a17.52,17.52,0,0,1-3.46-3.16.07.07,0,0,1,0-.12Z"/><path class="cls-17" d="M206.78,254.93a1.52,1.52,0,0,1,1.72-.1c.34.12.59.63,1,.63a5.1,5.1,0,0,0,.61-.17,1.07,1.07,0,0,1,1,.69.11.11,0,0,1,0,.12,1.07,1.07,0,0,1-1.18.17c-.16-.12-.29-.36-.46-.43-.35-.19-.8.15-1.16.1a1.55,1.55,0,0,1-1.48-.89.08.08,0,0,1,0-.12Z"/><path class="cls-17" d="M227,247.51a73,73,0,0,1-4.19,9.54l-.84-.87a16.23,16.23,0,0,0,4.89-3.07c2.24-1.48,4.44-2.91,6.77-4.22a3.05,3.05,0,0,0,.89-.5c1.73-1.23,4.28-3,6-4.31a5.75,5.75,0,0,0,1.1-1,.06.06,0,0,1,.08,0c0,.54-.53,1-.83,1.37a24.12,24.12,0,0,1-3.31,3.08,12.44,12.44,0,0,1-3.3,2,9.68,9.68,0,0,0-2,.74,16.45,16.45,0,0,0-5.24,3.93,14,14,0,0,1-4.43,3.13.64.64,0,0,1-.86-.27.64.64,0,0,1,0-.6,75.59,75.59,0,0,1,5.22-9,.06.06,0,0,1,.11,0Z"/><path class="cls-17" d="M233.63,241.93a15,15,0,0,1-2.54,5,32.82,32.82,0,0,0-2.27,3,12.05,12.05,0,0,1-2.88,4.76.08.08,0,0,1-.1,0c.1-2,1.41-3.56,2.65-5,1-1.57,1.46-3.45,2.56-5a13.82,13.82,0,0,1,2.48-2.84s.12,0,.1.07Z"/><path class="cls-17" d="M237.05,243.54a4.21,4.21,0,0,1-2.17,2.55c-.62.4-1.47.43-2.06.87a3.38,3.38,0,0,1-1.9,1.18,2.59,2.59,0,0,1-1.17,0,.07.07,0,0,1,0-.11,4.4,4.4,0,0,1,2.92-1.37c1-.49,1.47-1.57,2.37-2.16a7.51,7.51,0,0,1,2-1,.07.07,0,0,1,.09.08Z"/><path class="cls-17" d="M243.41,247.12a6,6,0,0,1-3.53,1.78c-.85.2-1.79,0-2.63.25a4.94,4.94,0,0,1-2.55.65,3.8,3.8,0,0,1-1.33-.32.07.07,0,0,1,0-.09,5.84,5.84,0,0,1,3.85-.63c1.26-.21,2.33-1.11,3.58-1.4a9.44,9.44,0,0,1,2.6-.35s.09.07,0,.11Z"/><path class="cls-17" d="M234.93,253a5.81,5.81,0,0,1-3.48,1.88c-.85.22-1.8,0-2.63.27a4.73,4.73,0,0,1-2.57.62,3.59,3.59,0,0,1-1.33-.37.07.07,0,0,1,0-.12,6.35,6.35,0,0,1,3.82-.51c1.26-.22,2.32-1.13,3.56-1.45a10,10,0,0,1,2.58-.43.07.07,0,0,1,.05.11Z"/><path class="cls-27" d="M195.53,281.51v1.24h-.37v-1.24l-1.43-2.33h.4l1.23,2,1.22-2H197Z"/><path class="cls-27" d="M197.13,281a1.88,1.88,0,1,1,1.88,1.82A1.8,1.8,0,0,1,197.13,281Zm3.37,0a1.5,1.5,0,1,0-1.49,1.48A1.45,1.45,0,0,0,200.5,281Z"/><path class="cls-27" d="M201.6,281.22v-2H202v2c0,.84.4,1.23,1.1,1.23s1.09-.39,1.09-1.23v-2h.37v2a1.47,1.47,0,1,1-2.93,0Z"/><path class="cls-27" d="M206.26,279.5H205v-.32h2.88v.32h-1.25v3.25h-.38Z"/><path class="cls-27" d="M211.38,279.18v3.57H211V281.1h-2.23v1.65h-.38v-3.57h.38v1.59H211v-1.59Z"/><path class="cls-27" d="M212.68,279.21a1,1,0,0,1-.06.29l-.22.71h-.25l.18-.74a.25.25,0,0,1-.19-.26.27.27,0,1,1,.54,0Z"/><path class="cls-27" d="M213.09,282.31l.15-.29a1.75,1.75,0,0,0,1.18.44c.66,0,1-.28,1-.64,0-1-2.19-.37-2.19-1.69,0-.53.4-1,1.31-1a2,2,0,0,1,1.11.31l-.13.3a1.8,1.8,0,0,0-1-.29c-.65,0-.94.29-.94.65,0,1,2.2.38,2.2,1.68,0,.53-.42,1-1.33,1A1.91,1.91,0,0,1,213.09,282.31Z"/><path class="cls-27" d="M217.39,281a1.79,1.79,0,0,1,1.87-1.81,1.73,1.73,0,0,1,1.31.52l-.24.24a1.41,1.41,0,0,0-1.06-.43,1.48,1.48,0,1,0,0,3,1.41,1.41,0,0,0,1.06-.43l.24.24a1.74,1.74,0,0,1-1.31.53A1.8,1.8,0,0,1,217.39,281Z"/><path class="cls-27" d="M221.28,279.18h.38v3.24h2v.33h-2.37Z"/><path class="cls-27" d="M224.18,279.18h.38v3.57h-.38Z"/><path class="cls-27" d="M229.34,279.18v3.57H229v-2.86l-1.4,2.4h-.18l-1.4-2.38v2.84h-.36v-3.57h.31l1.55,2.64,1.53-2.64Z"/><path class="cls-27" d="M232.64,281.79h-2l-.43,1h-.39l1.63-3.57h.37l1.64,3.57h-.4Zm-.14-.3-.86-1.92-.85,1.92Z"/><path class="cls-27" d="M234.65,279.5H233.4v-.32h2.88v.32H235v3.25h-.38Z"/><path class="cls-27" d="M239.31,282.42v.33h-2.52v-3.57h2.45v.32h-2.07v1.27H239v.32h-1.84v1.33Z"/><path class="cls-27" d="M190.09,287.08a1.79,1.79,0,0,1,1.87-1.81,1.7,1.7,0,0,1,1.3.52L193,286a1.39,1.39,0,0,0-1.05-.43,1.48,1.48,0,1,0,0,3,1.39,1.39,0,0,0,1.05-.43l.24.24a1.71,1.71,0,0,1-1.31.53A1.79,1.79,0,0,1,190.09,287.08Z"/><path class="cls-27" d="M197,285.3v3.57h-.37v-1.65h-2.23v1.65H194V285.3h.38v1.59h2.23V285.3Z"/><path class="cls-27" d="M200.26,287.91h-2l-.43,1h-.39l1.63-3.57h.37l1.63,3.57h-.39Zm-.14-.3-.86-1.92-.85,1.92Z"/><path class="cls-27" d="M204.56,285.3v3.57h-.31L202,286v2.9h-.38V285.3h.31l2.3,2.89V285.3Z"/><path class="cls-27" d="M208.14,287.08h.36v1.36a2,2,0,0,1-1.31.46,1.82,1.82,0,1,1,0-3.63,1.74,1.74,0,0,1,1.32.51l-.23.24a1.45,1.45,0,0,0-1.08-.42,1.48,1.48,0,1,0,0,3,1.52,1.52,0,0,0,.93-.28Z"/><path class="cls-27" d="M212,288.54v.33h-2.53V285.3h2.45v.32h-2.07v1.27h1.85v.32h-1.85v1.33Z"/><path class="cls-27" d="M216.46,288.87l-.81-1.15H214.4v1.14H214V285.3h1.33c.91,0,1.46.46,1.46,1.22a1.11,1.11,0,0,1-.82,1.12l.88,1.23Zm0-2.35c0-.57-.37-.9-1.09-.9h-.95v1.79h.95C216.07,287.41,216.44,287.08,216.44,286.52Z"/><path class="cls-27" d="M220.14,288.54v.33h-2.53V285.3h2.45v.32H218v1.27h1.85v.32H218v1.33Z"/><path class="cls-27" d="M220.59,288.43l.15-.29a1.72,1.72,0,0,0,1.17.44c.67,0,1-.29,1-.64,0-1-2.2-.37-2.2-1.7,0-.52.41-1,1.32-1a2,2,0,0,1,1.11.31l-.13.3a1.82,1.82,0,0,0-1-.29c-.65,0-.94.29-.94.64,0,1,2.19.39,2.19,1.69,0,.53-.41,1-1.33,1A1.9,1.9,0,0,1,220.59,288.43Z"/><path class="cls-27" d="M224,285.3h.38v3.57H224Z"/><path class="cls-27" d="M225.41,285.3h.38v3.24h2v.33h-2.38Z"/><path class="cls-27" d="M228.32,285.3h.37v3.57h-.37Z"/><path class="cls-27" d="M232.28,288.54v.33h-2.52V285.3h2.45v.32h-2.07v1.27H232v.32h-1.84v1.33Z"/><path class="cls-27" d="M236.06,285.3v3.57h-.31l-2.3-2.9v2.9h-.38V285.3h.32l2.3,2.89V285.3Z"/><path class="cls-27" d="M236.81,287.08a1.79,1.79,0,0,1,1.87-1.81,1.7,1.7,0,0,1,1.3.52l-.24.24a1.39,1.39,0,0,0-1.05-.43,1.48,1.48,0,1,0,0,3,1.39,1.39,0,0,0,1.05-.43l.24.24a1.71,1.71,0,0,1-1.31.53A1.79,1.79,0,0,1,236.81,287.08Z"/><path class="cls-27" d="M243.22,288.54v.33h-2.53V285.3h2.45v.32h-2.07v1.27h1.85v.32h-1.85v1.33Z"/></g><g id="кисти"><path class="cls-7" d="M370.24,184.74c-.78-1-2-.88-3.16-.68a8.42,8.42,0,0,0-1.3.45,5.88,5.88,0,0,0-.69-1.83,2,2,0,0,1-.42-1.8c.18-1.37.17-2.73-1.2-3.63a3.89,3.89,0,0,0-5,.92,26.07,26.07,0,0,0-2.32,4.11c-1.46,3.44-2.71,7-4.17,10.4a7.7,7.7,0,0,1-2.05,2.92c-3.8,3.1-8.28,4.1-13.08,3.78-2.56-.17-4-1.81-4.12-4.36a24,24,0,0,0-.29-2.52c-.48-3.24-2-5.58-5.39-6.46-2.42-.62-4.51.72-4.57,3.23a7.63,7.63,0,0,0,.36,2.15c.56,2,1.3,3.9,1.75,5.9a11.9,11.9,0,0,1-.36,6.93,62.46,62.46,0,0,0-2.09,6.6,15.36,15.36,0,0,0,.25,9.73,2.39,2.39,0,0,1-.05,1.47c-.55,1.67-1.21,3.31-1.75,5a1.91,1.91,0,0,0,.11.95,2.47,2.47,0,0,0,1.86,3.12c1.77.47,3.26,1.64,5,2.33s3.36,1.11,5,1.75c2.47,1,4.16-1.52,3.69-3.53.38-1.65.7-3.32,1-5a3,3,0,0,1,1.33-2c4-2.8,8-5.6,11.88-8.53a17.49,17.49,0,0,0,5.64-6.37c1-2,1.8-4.17,2.74-6.23a10.28,10.28,0,0,1,1.34-2.38c2.15-2.6,4.43-5.09,6.55-7.72a53.94,53.94,0,0,0,3.61-5.23A2.94,2.94,0,0,0,370.24,184.74Z"/><path class="cls-7" d="M147,396.08c-.3-3.2-.4-6.43-.42-9.65a64.6,64.6,0,0,1,1-12.34,24.46,24.46,0,0,1,.83-2.73l.42.09a2.35,2.35,0,0,1,2.66-.77c2.67.77,5.51.54,8.23,1.2a26.44,26.44,0,0,1,7.31,3,3,3,0,0,1,1.36,3.52,6,6,0,0,1,2.26,4.15c.25,2.66.27,5.34.29,8,0,1.39-.25,2.74.37,4.1q1.91,4.2,3.64,8.49c1,2.36,1.84,4.93.93,7.37-.63,1.7-1,3.48-1.71,5.12a25.24,25.24,0,0,1-2.62,4.21,2.28,2.28,0,0,1-1.12.65,4,4,0,0,1-3.71-.79c-.35.33-.64.67-1,.94-1.32,1-2.36.86-3.28-.45-4.45-6.33-8.88-12.67-13.39-19A10.66,10.66,0,0,1,147,396.08Z"/></g></g></svg>